# xmcd
#
# Track frame offsets: 
#        150
#        16812
#        41613
#        60605
#        78488
#        92202
#        108574
#        138481
#        156565
#        170052
#        192598
#        214200
#        228235
#        243529
#
# Disc length: 3424 seconds
#
# Revision: 2
# Processed by: cddbd v1.5.2PL0 Copyright (c) Steve Scherf et al.
# Submitted via: ExactAudioCopy v0.99pb4
#
DISCID=c90d5e0e
DTITLE=이문세 - Memories CD1
DYEAR=2004
DGENRE=K-Pop
TTITLE0=광화문 연가
TTITLE1=가로수 그늘 아래 서면
TTITLE2=사랑이 지나가면
TTITLE3=조조할인
TTITLE4=깊은 밤을 날아서
TTITLE5=소녀
TTITLE6=그녀의 웃음소리뿐
TTITLE7=굿바이
TTITLE8=슬픈 미소
TTITLE9=해바라기
TTITLE10=내 오랜 그녀
TTITLE11=그대
TTITLE12=그대 나를 보면
TTITLE13=할말을 하지 못했죠
EXTD=YEAR: 2004
EXTT0=
EXTT1=
EXTT2=
EXTT3=
EXTT4=
EXTT5=
EXTT6=
EXTT7=
EXTT8=
EXTT9=
EXTT10=
EXTT11=
EXTT12=
EXTT13=
PLAYORDER=
